<?xml version="1.0" standalone="no"?>
<!DOCTYPE svg PUBLIC "-//W3C//DTD SVG 1.1//EN" "http://www.w3.org/Graphics/SVG/1.1/DTD/svg11.dtd">
<svg xmlns="http://www.w3.org/2000/svg">
<metadata>Generated by Fontastic.me</metadata>
<defs>
<font id="untitled-font-2" horiz-adv-x="512">
<font-face font-family="untitled-font-2" units-per-em="512" ascent="480" descent="-32"/>
<missing-glyph horiz-adv-x="512" />

<glyph glyph-name="affordable" unicode="&#97;" d="M149 26c-13 13-20 31-20 49 0 28 18 54 45 64l5 2 0 6c0 0 3 26 4 29 0 3 2 3 4 3 10 1 22 2 35 3 3 1 5 0 5-4-1-9-4-30-5-31l-1-7 6-3c7-3 14-8 20-14 13-12 20-30 20-48 0-38-31-69-69-69-18 0-36 7-49 20z m80 78c-8 8-19 13-31 13-12 0-23-5-31-13-9-8-13-20-13-31 0-12 4-23 13-32 8-8 19-13 31-13 24 0 44 20 44 45 0 11-4 23-13 31z m-49 155c4 37 20 160 20 161l0 0 0 1c0 15 11 33 23 41l28 16c5 3 9 4 11 2 1-1 2-4 1-9-1-7-25-161-32-205-1-3-2-3-4-4-6-1-15-2-25-3-6-1-13-2-18-3-2 0-4 0-4 3z m-160-97c-13 13-20 30-20 49 0 38 31 68 69 68 18 0 35-7 48-20 6-5 10-12 14-19l3-7 6 2c3 1 5 1 8 1l0 0 300 42c6 1 9-1 9-2 2-2 1-6-1-10l-17-28c-7-13-26-24-41-24l-1 0-262-23-2-5c-10-26-36-44-64-44-19 0-36 7-49 20z m78 80c-9 8-20 13-32 13-24 0-44-20-44-44 0-12 5-23 13-32 8-8 19-13 31-13 12 0 23 5 32 13 8 9 12 20 12 32 0 11-4 23-12 31z m308 262l-107-89c-4-3-8-11-9-16 0 0-11-95-14-126 0-5 4-4 4-4l167 23 0 0c11 1 17-3 20-6 3-2 10-12 1-28l-17-27c-2-4-5-7-8-10-12-13-30-21-45-21l-128-11c0 0-3-1-3-4-1-3-1-9-1-9-1-6 3-11 9-11l201-23c6 0 11 4 11 9l25 224c0 5-2 13-6 17l-85 110c-3 4-10 5-15 2z m23-65c-1-12-12-21-24-19-12 1-21 12-20 24 2 12 13 21 25 20 12-2 21-13 19-25z"/>
<glyph glyph-name="medical" unicode="&#98;" d="M460 390l-271 0 0 2c0 14-12 25-26 25-14 0-25-11-25-25l0-2-15 0c-43 0-82-19-97-78l-26-107c0-34 22-63 52-73 0 2 0 5 0 8 0 31 25 56 56 56 30 0 56-25 56-56 0-4-1-8-2-13l171 0c-1 5-2 9-2 13 0 31 25 56 56 56 31 0 56-25 56-56 0-4 0-8-1-12 39 3 70 37 70 77l0 107c0 43-9 78-52 78z m-299-118l-105 0 13 53c1 2 2 5 3 11 5 26 35 24 35 24l54 0z m213-23l-48 0 0-48-46 0 0 48-48 0 0 46 48 0 0 48 46 0 0-48 48 0z m-223-110c0-25-20-44-44-44-24 0-44 19-44 44 0 24 20 44 44 44 24 0 44-20 44-44z m282 0c0-25-19-44-44-44-24 0-44 19-44 44 0 24 20 44 44 44 25 0 44-20 44-44z"/>
<glyph glyph-name="bestseller" unicode="&#99;" d="M470 303l-32 41 11 52-47 23-12 52-53 0-33 41-48-23-48 23-33-41-53 0-12-52-47-23 11-52-32-41 32-41-11-52 47-23 12-52 32 0 0-135 101 55 101-55 0 135 33 0 12 52 48 23-12 52z m-156-99l-112 0 0 44 31 0 0 107-33 0 0 49 83 0 0-156 31 0z"/>
<glyph glyph-name="beach" unicode="&#100;" d="M0 14c1-2 2-7 2-7 164 0 328 0 491 0 1 9 6 13-1 18-5 2-11 3-16 5-1 17-2 19-17 25-31 12-62 23-92 35-16 6-31 5-46-4-18-10-36-19-54-30-14-8-27-8-41 0-24 14-49 28-73 42-5 3-10 6-15 9l-10 5c-1 1-2 1-3 2-24 14-48 27-72 41-3 1-6 4-10 5-7 3-15 0-19-6-4-7-3-15 3-20 2-3 5-4 8-6 14-8 28-16 42-24 3-1 5-3 6-4-6-7-11-13-16-19-9-14-18-29-26-43-3-7-8-10-15-9-6 0-11 0-17-1-7-1-10-6-9-14z m295 23c12 7 23 12 35 18 13 7 26 8 40 2 17-8 35-14 52-21 3-1 6-1 9-2 0-1 0 0 0 0-47 0-93 0-142 0 3 0 4 2 6 3z m-195 56c35-19 69-38 104-57 0-1 0-2 0-2-47 0-93 0-139 0 2 0 24 45 35 59z m-36 82c-1-15 10-27 25-28 15-1 27 10 28 25 1 15-11 28-26 28-14 1-26-10-27-25z m435 67c2 0 4 0 6 1 4 2 7 7 7 12 0 138-112 250-249 250-138 0-250-112-250-250 0-5 3-10 8-12 5-2 11-2 15 2 0 0 24 21 53 21 17 0 32-7 45-20 2-3 6-5 9-4 4 0 8 1 10 4 0 0 24 23 53 23 15 0 27-7 45-20l0-129c0 0 3 0 5 0 4 0 8 1 13 3 3 1 9 2 9 4l0 122c9 13 28 20 44 20 29 0 51-23 51-23 3-3 6-4 10-4 3-1 6 1 9 4 13 13 28 20 45 20 28 0 53-21 53-21 3-2 6-3 9-3z m-457 39c10 89 74 163 158 188 19 17 40 27 63 27 6 0 11-1 17-2-5 1-11 2-17 2-23 0-43-10-62-27 0 0 0 0 0-1-39-35-66-103-71-184 0 0-1 0-1 0-12 7-26 9-40 9-18 0-35-6-47-12z m114 0c0 0 0 0 0 0 0-8-1-15-1-23 0 8 1 15 1 23z m50 14c-19 0-36-5-49-12 7 95 41 172 94 184l0-184c-18 8-30 12-45 12z m116 1c-16 0-35-5-44-13l0 184c44-12 86-90 92-185 0 1 0 1 0 1-13 7-29 13-48 13z m75-14c0-8 0-16 0-24 0 8 0 16 0 24z m40 10c-15 0-28-1-40-8-6 81-32 148-70 184 84-25 147-98 157-188-12 7-29 12-47 12z m-165-178c-6-2-12-4-17-4-6 0-12 2-19 6-25 15-51 31-77 45-6 3-11 7-14 7-1 0-1 0-1 0-16 0-26-11-26-25 0-10 6-18 15-23 30-17 61-34 91-51 6-4 13-6 19-6 6 0 12 2 19 5 20 12 40 23 61 34 7 4 14 6 21 6 6 0 12-1 18-4 25-10 50-20 74-30 4-1 9-3 13-3 0 0 0 0 1 0 6 0 11 4 12 10 2 6 1 13-5 17-2 2-5 3-8 4-30 11-60 22-89 34-7 3-13 4-20 4-8 0-15-2-23-5-13-7-30-12-39-18l0-2-5 0c0 0-1 0-1-1z m1 2l3 0 0 1c-1 0-2-1-3-1z"/>
<glyph glyph-name="winter" unicode="&#101;" d="M469 191l-53-14-35 20 58 15c6 2 10 8 8 14-2 6-8 10-14 8l-80-21-30 17c-1 1-2 1-3 2l32 14c4 2 7 6 7 10 0 5-3 9-7 11l-32 14c1 0 2 0 3 1l30 17 80-21c1 0 2 0 3 0 5 0 10 3 11 8 2 6-2 12-8 14l-58 15 35 21 53-14c1 0 2-1 2-1 6 0 10 4 11 9 2 6-1 12-8 14l-30 8 29 17c6 3 8 10 4 15-3 6-10 7-15 4l-29-16 8 30c2 6-2 12-8 14-6 1-12-2-14-8l-14-52-35-21 15 58c2 6-2 12-8 14-6 1-12-2-14-8l-21-80-30-17c-1-1-2-2-3-2l4 34c1 5-2 9-6 11-3 3-8 2-12 0l-28-21c0 1 0 2 0 4l0 34 58 59c5 4 5 11 0 16-4 4-11 4-16 0l-42-42 0 40 38 38c5 5 5 12 0 16-4 5-11 5-16 0l-22-22 0 34c0 6-5 11-11 11-6 0-12-5-12-11l0-34-22 22c-4 5-11 5-16 0-4-4-4-11 0-16l38-38 0-40-42 42c-4 4-11 4-16 0-4-5-4-12 0-16l58-59 0-34c0-2 1-3 1-4l-28 21c-4 3-9 3-13 1-4-3-6-7-5-12l3-34c0 0-1 1-2 2l-30 17-22 80c-1 6-8 9-14 8-6-2-9-8-8-14l16-58-35 21-14 52c-2 6-8 9-14 8-6-2-10-8-8-14l8-30-29 16c-6 3-13 2-16-4-3-5-1-12 4-15l29-17-30-8c-6-2-9-8-8-14 2-5 6-9 11-9 1 0 2 1 3 1l52 14 35-21-57-15c-6-2-10-8-8-14 1-5 6-8 11-8 1 0 2 0 3 0l79 21 30-17c1-1 2-1 3-1l-32-14c-4-2-6-6-6-11 0-4 2-8 6-10l33-14c-2-1-3-1-4-2l-30-17-79 21c-6 2-13-2-14-8-2-6 2-12 8-14l57-15-35-20-52 14c-6 1-12-2-14-9-1-6 2-12 8-14l30-8-29-16c-5-3-7-10-4-16 2-3 6-5 10-5 2 0 4 0 6 1l29 17-8-30c-2-6 2-13 8-14 1-1 2-1 3-1 5 0 9 4 11 9l14 52 35 20-16-57c-1-7 2-13 8-14 1-1 2-1 3-1 5 0 10 4 11 9l22 79 30 18c1 0 2 1 2 2l-3-35c-1-4 1-9 5-11 4-2 9-2 13 1l28 20c0-1-1-2-1-3l0-35-58-58c-4-5-4-12 0-16 2-3 5-4 8-4 3 0 6 1 8 4l42 42 0-41-38-38c-4-4-4-12 0-16 3-2 5-3 8-3 3 0 6 1 8 3l22 22 0-33c0-7 6-12 12-12 6 0 11 5 11 12l0 33 22-22c5-4 12-4 16 0 5 4 5 12 0 16l-38 38 0 41 42-42c5-5 12-5 16 0 5 4 5 11 0 16l-58 58 0 35c0 1 0 2 0 3l28-20c2-2 4-3 7-3 2 0 4 1 5 2 4 2 6 6 6 11l-4 35c1-1 2-2 3-2l30-18 21-79c2-5 6-9 11-9 1 0 2 0 3 1 6 1 10 7 8 14l-15 57 35-20 14-52c1-5 6-9 11-9 1 0 2 0 3 1 6 1 10 8 8 14l-8 30 29-17c2-1 4-1 6-1 3 0 7 2 9 5 4 6 2 13-4 16l-29 16 30 8c7 2 10 8 8 14-1 7-7 10-13 9z m-178 53c-5-2-7-7-7-12l4-31-25 19c-2 1-5 2-7 2-3 0-5-1-7-2l-25-19 3 31c1 5-2 10-6 12l-29 12 29 13c4 2 7 6 6 11l-3 31 25-18c4-3 10-3 14 0l25 18-4-31c0-5 2-9 7-11l28-13z"/>
<glyph glyph-name="gtour" unicode="&#102;" d="M141 425c0 36 29 66 65 66 36 0 66-30 66-66 0-36-30-66-66-66-36 0-65 30-65 66z m97-110c0 14 5 27 13 38-5 1-11 2-17 2l-56 0c-6 0-11-1-17-2 9-12 14-26 14-41 10 5 22 9 34 9 10 0 20-3 29-6z m11-6c19-12 32-32 35-56 7-4 16-6 25-6 34 0 61 27 61 61 0 33-27 60-61 60-33 0-60-26-60-59z m-40-124c34 0 61 27 61 60 0 34-27 61-61 61-33 0-60-27-60-61 0-33 27-60 60-60z m26-4l-51 0c-43 0-78-35-78-78l0-62 0-1 5-2c40-12 76-17 105-17 57 0 90 17 92 18l4 2 0 0 0 62c0 43-34 78-77 78z m100 62l-51 0c-1-20-9-38-23-52 38-11 66-46 66-88l0-19c50 2 79 16 81 17l4 2 0 0 0 63c0 42-34 77-77 77z m14 127c19-12 32-33 34-56 8-4 17-6 26-6 33 0 60 27 60 61 0 33-27 60-60 60-33 0-60-26-60-59z m86-66l-51 0c-1-20-10-39-23-52 38-11 65-46 65-88l0-19c51 2 80 16 82 17l4 2 0 0 0 63c0 42-35 77-77 77z m-332-57c12 0 23 4 32 10 3 19 14 36 28 47 0 2 1 3 1 4 0 33-28 60-61 60-33 0-60-27-60-60 0-34 27-61 60-61z m54-56c-13 13-22 32-23 52-1 0-3 0-5 0l-52 0c-42 0-77-35-77-77l0-63 0-1 4-1c33-11 62-15 88-17l0 19c0 42 27 77 65 88z"/>
<glyph glyph-name="bargain" unicode="&#103;" d="M319 223c-6 0-10-5-13-7-4-6-7-14-7-23 0-8 3-17 7-22 3-3 7-7 13-7 6 0 10 4 12 7 5 5 8 14 8 22 0 9-3 17-8 23-2 2-6 7-12 7z m-126 66c6 0 10 5 13 7 4 6 7 14 7 23 0 8-3 17-7 22-3 3-7 7-13 7-6 0-10-4-12-7-5-5-8-14-8-22 0-9 3-17 8-23 2-2 6-7 12-7z m312-20l-62 48 23 75c1 5 0 10-3 15-3 4-8 6-13 6l-79 2-25 74c-2 5-6 9-11 11-5 1-10 0-15-3l-64-45-64 45c-5 3-10 4-15 3-5-2-9-6-11-11l-25-74-79-2c-5 0-10-2-13-6-3-5-4-10-3-15l23-75-62-48c-5-3-7-8-7-13 0-5 2-10 7-13l62-48-23-75c-1-5 0-10 3-15 3-4 8-6 13-6l79-2 25-74c2-5 6-9 11-11 5-1 10 0 15 3l64 45 64-45c3-2 7-3 10-3 2 0 3 0 5 0 5 2 9 6 11 11l25 74 79 2c5 0 10 2 13 6 3 5 4 10 3 15l-23 75 62 48c5 3 7 8 7 13 0 5-2 10-7 13z m-312 103c24 0 43-24 43-53 0-29-19-53-43-53-23 0-43 24-43 53 0 29 20 53 43 53z m-3-232c-2-3-7-6-11-6-3 0-6 1-8 3-7 5-8 14-4 20l155 215c2 3 7 6 11 6 3 0 6-1 8-3 7-5 8-14 4-20z m129 0c-24 0-43 24-43 53 0 29 19 53 43 53 23 0 43-24 43-53 0-29-20-53-43-53z"/>
<glyph glyph-name="ctour" unicode="&#104;" d="M507 111l-55 55c0 0 0 0 0 0 0 0-1 0-1 0l-85 86 141 142c7 6 7 18 0 24l-89 89c-3 3-7 5-12 5-1 0-1 0-2 0-4-1-8-2-10-5l-89-89c0 0 0 0 0 0l-53-52-30 30c0 0 0 0 0 0 0 0 0 0 0 0l-56 55c0 0 0 0 0 1 0 0 0 0 0 0l-55 55c-3 3-8 5-13 5-4 0-9-2-12-5l-81-81c-7-7-7-18 0-25l141-141-141-142c-3-3-5-7-5-12l0-88c0-5 2-10 5-13 3-3 8-5 13-5l88 0c5 0 9 2 12 5l142 141 141-141c3-3 8-5 13-5 4 0 9 2 12 5l81 81c3 3 5 8 5 12 0 5-2 10-5 13z m-101 232l-63 63 63 63 63-63z m-363 71l55 55 31-30-28-28c-7-7-7-18 0-25 3-3 8-5 12-5 5 0 9 2 13 5l28 28 30-30-38-39c-7-7-7-18 0-25 3-3 7-5 12-5 4 0 9 2 12 5l39 39 18-18-56-56z m56-379l-64 0 0 64 283 282 63-63z m315 8l-129 128 56 56 18-18-39-39c-7-6-7-18 0-24 4-4 8-6 13-6 4 0 9 2 12 6l39 38 30-30-28-28c-7-7-7-18 0-25 4-4 8-5 13-5 4 0 9 1 12 5l28 28 30-31z"/>
<glyph glyph-name="honeymoon" unicode="&#105;" d="M453 401c-3 61-47 111-101 111-54 0-96-45-96-45 0 0-40 45-96 45-54 0-98-50-101-111-2-34 8-60 22-84 9-15 30-35 55-56l37-126-53 0 0-50 40 0 31-85 130 0 31 85 39 0 0 50-52 0 37 126c25 20 46 41 55 56 14 24 24 50 22 84z m-148-266l-98 0-27 92c40-29 76-53 76-53 0 0 36 23 76 53z"/>
<glyph glyph-name="picturesque" unicode="&#106;" d="M508 273c-5 5-113 130-251 130-138 0-246-125-250-130-9-11-9-26 0-36 4-6 112-131 250-131 138 0 246 125 251 131 9 10 9 25 0 36z m-209 55c10 5 23-1 29-13 7-12 5-26-4-31-10-5-23 0-29 13-7 12-5 26 4 31z m-42-176c-96 0-177 74-205 103 19 19 62 59 117 83-10-16-17-36-17-57 0-58 47-105 105-105 58 0 105 47 105 105 0 21-6 41-17 57 56-24 99-64 118-83-28-29-109-103-206-103z"/>
<glyph glyph-name="r-honeymoon" unicode="&#107;" d="M437 459c-20 11-44 18-69 18-45 0-85-21-112-53-26 32-66 53-111 53-26 0-49-7-70-18-45-25-75-72-75-127 0-16 3-31 7-45 25-111 249-252 249-252 0 0 224 141 249 252 5 14 7 29 7 45 0 55-30 102-75 127z"/>
<glyph glyph-name="family" unicode="&#108;" d="M141 440c0-21-17-37-37-37-21 0-38 16-38 37 0 20 17 37 38 37 20 0 37-17 37-37z m-33-256l8-138c0-4 4-8 8-8 5 0 9 4 9 8l8 138 24 0-25 155 51-101c1-5 7-7 11-5 4 2 7 7 5 11 0 0-37 101-47 120-9 18-18 30-53 30l-7 0c-35 0-44-12-53-30-9-19-46-120-46-120-2-4 0-9 4-11 5-2 10 0 12 5l51 101-26-155 25 0 7-138c0-4 4-8 9-8 5 0 9 4 9 8l7 138z m297 293c-20 0-37-16-37-37 0-21 17-37 37-37 21 0 38 16 38 37 0 21-17 37-38 37z m39-219l3 81 45-101c2-5 7-7 12-5 4 2 6 7 4 12 0 0-32 100-41 119-9 19-23 30-58 30l-7 0c-35 0-49-11-58-30-10-19-42-119-42-119-2-5 0-10 5-12 4-2 10 0 11 5l46 101 3-81-8-205c0-8 6-15 14-15 0 0 1 0 1 0 8 0 14 6 15 13l16 168 17-168c0-7 7-13 15-13 0 0 0 0 1 0 8 0 14 7 13 15l-7 205z m-190-8c-12 0-22-10-22-23 0-12 10-22 22-22 13 0 23 10 23 22 0 13-10 23-23 23z m0-135c0 0 11-71 11-71 1-4 5-6 9-6 4 0 7 2 8 6 0 0 1 5 0 5l-4 88 2 31c1 10 1 7 13 14 12 7 32 38 33 40 1 2 3 4 3 6 1 3-1 6-5 7-2 0-4-1-6-3-1-1-24-32-42-35-4 0-8 2-19 2l-5 0c-11 0-15-2-19-2-18 3-41 34-43 35-1 2-3 3-5 3-4-1-6-4-5-7 0-2 2-4 3-6 1-2 21-33 33-40 12-7 12-4 13-14l2-31-4-88c-1 0 0-5 0-5 1-4 4-6 9-6 3 0 7 2 8 6 0 0 10 71 10 71"/>
<glyph glyph-name="exotic" unicode="&#109;" d="M159 457c38 0 0 55 0 55 0 0-38-55 0-55z m12-109l0 79-24 0c0 0 0 0 0 0 0-21 0-78 0-100l19 16z m-36 93c0-6 4-10 10-10l28 0c6 0 11 4 11 10 0 6-5 11-11 11l-28 0c-6 0-10-5-10-11z m228-253c8 0 14 6 14 14 0 7-6 13-13 14l-18-28z m-67 55c1 1 2 3 3 4l-23 24c0-5 0-9-1-13l5-40z m63-1l-44 0c-3 0-6-1-8-3 0-1-1-1-2-2l-23-37 0-3 3-24 32 0c4 0 8 3 11 6l5 9 18 28 12 18c2 4 0 8-4 8z m-84-80l0 6-1 5-1 13-1 8-1 3 0 6 0 1c-1 0-1-1-1-2 0-1 0-3-1-5 0-3 0-6-1-8-1-5-2-10-3-15 0 0 0 0 0-1 0-1-1-3-1-5-1-2-1-4-2-6-24-95-73-108-94-110l-12-52 138 0z m-48 202c0 0 0 1 0 1l-6 23c0 1-2 1-2 0l-6-23c0 0 0 0 0-1 2 1 4 1 6 1 3 0 5 0 8-1z m-40 11l9-19c3 3 7 5 11 7l-18 14c-1 1-2 0-2-2z m-12-21l10-8 1-1c0 0 0 0 0 1 2 2 4 5 6 7l-16 3c-1 0-2-1-1-2z m89 2l-17-3c2-3 4-5 6-8l12 9c1 1 0 2-1 2z m-13 21l-18-15c4-1 8-3 11-6l9 19c0 2-1 3-2 2z m-83-177l14 16 0 106c-3 5-6 9-9 13l-2-2-21-18-3-2c0 0 5-89 21-113z m29 142c0 0 0-1-1-1 0-1 0-1-1-2 0-1-1-2-1-3-1-2-1-4-1-5 0-1 0-2 0-3l0-99 53 63 0 35c0 15-12 27-27 27-9 0-17-5-22-12z m-9-274c12 6 23 15 33 27 12 17 23 39 30 67 0 1 0 1 0 2 2 4 3 9 4 14 1 6 2 13 3 19 3 19 5 39 6 60 1 5 1 10 1 15 0 3 0 6 0 10 0 0 0 1 0 2l-11 0-2-3-6-6-69-81-4-5-3-4 0-121c1 0 1 0 2 0 4 0 10 2 16 4z"/>
<glyph glyph-name="summer" unicode="&#110;" d="M397 233c-65 63-146 104-237 69-29-11-54-30-73-52-1-1-1-1-1-1 0 0-1-1-1-1-29-36-46-82-45-130 0-1 1-2 1-3 0 0 0 0 1 0 1-4 5-3 6 0 0 4 1 7 3 10 3 3 6 6 10 9 6 2 13 7 19 13 9 4 18 5 28 1 3-1 6 1 7 4 3-2 7-3 10-6 0 0 0 0 1-1 1 0 2-1 3-2 4-3 10 1 7 6 0 0 0 0 0 0 25 26 52 44 85 22 4-43 22-88 36-128 0 0 0 0 0 0-7-3-13-9-18-16-11 6-24 1-28-9-4 14-20 26-35 22-15-4-24-23-15-36 1-3 5-1 4 2-6 11 3 25 15 27 14 1 22-11 26-22 0-1 1-1 1-2-5 0-9 0-13-1-4 0-4-5 0-5 5 0 10 0 15-1 5-1 10-2 14-2 3 0 5 4 2 6-3 1-6 2-10 2 2 10 13 20 23 11 2-2 4-1 6 1 10 13 29 24 38 3 0-1 0-1 0-1-1 0-2 0-2 0-5-1-5-7 0-7 6 0 15-1 21 2 3 2 2 6-1 6-1 1-2 1-4 1 5 11 19 13 27 3 2-3 5-3 8 0 7 10 20 8 25-1-1 0-1 0-1 0-5-1-4-8 1-8 2-1 4-1 6-1 4 0 6 3 5 6-4 21-27 26-41 13-12 11-31 7-37-11 0 0 0-1 0-1 1 11-10 20-21 20 0 0-1 0-1 0 0 1 0 1 0 1-13 41-22 86-40 126 1 0 2 2 3 3 9 16 23 29 41 33 18 5 32 0 48-7 1 0 1-1 2-1 2 0 3-1 4-1 5-3 11 3 6 7 0 1-1 2-2 2 17 17 37 22 60 10 6-2 11 4 7 9 3 1 4 5 1 7z m-215-40c-22-4-38-20-52-37 0 0 0 0-1 0 2 49 22 86 44 127 2 3 4 5 6 7 2 2 2 5 1 7 0 0 0 0 0 0 1 0 1 0 1 0 7-36 17-72 31-106-9 3-20 4-30 2z m141 21c-19 42-71 74-118 88 68 9 125-23 177-68-22 6-47-1-59-20z m97 226c-9 24-43 38-63 18 0-1-1-2-1-3-14-5-25-25-26-38-4-30 22-46 50-39 27 7 51 32 40 62z m-38-47c-16-6-39-4-40 17 0 16 13 44 33 37 3-1 4 3 2 5 12 1 23-2 29-15 9-20-6-37-24-44z m-31 113c-3 2-8 1-8-3-1-4 0-8 1-13 2-5 3-11 3-16 1-5 9-6 9 0 1 9 2 25-5 32z m59 1c-1 4-6 7-9 3-6-5-6-16-6-24 0-6 9-7 10-1 1 3 2 7 3 11 1 3 2 7 2 11z m38-22c-5 0-7-2-10-5-3-6-6-12-9-17-2-5 4-11 8-6 2 3 4 6 7 9 0 1 1 2 2 3 1 1 1 2 2 2 7 1 7 13 0 14z m21-65c-3 2-6 1-10 1-3 0-7 2-10 3-5 2-7-5-3-8 6-4 17-8 24-4 3 3 2 7-1 8z m-28-58c-2 4-4 6-8 9-3 3-6 6-10 8-3 2-8-3-6-6 3-3 6-6 9-9 3-3 5-6 9-7 3-1 7 2 6 5z m-53-26c-1 4-1 9-2 13-1 2-5 3-6 1-4-8-1-25 8-29 3-2 6 1 6 4-1 4-4 7-6 11z m-63 21c-2-1-5-5-7-8-2-3-5-5-6-9 0-4 3-7 7-5 3 2 5 4 7 7 1 2 2 3 3 5l1 2c0 0 0 0 0 1 1 0 1 0 1 0l1 0c1 1 2 2 2 3 0 5-5 7-9 4z m-14 42c-10 3-27 1-34-6-4-3 0-8 4-8 5 1 9 4 14 5 5 1 10 1 15 2 4 0 5 6 1 7z m6 42c-8 7-17 15-28 16-5 0-5-7-2-9 4-3 8-5 12-7 5-2 9-4 12-7 5-3 10 4 6 7z"/>
<glyph glyph-name="corporate" unicode="&#111;" d="M300 439c-4-3-6-6-8-11-8 5-16 8-25 11 3 8 6 17 8 25 4 10 8 19 6 31 0 5-8 7-11 4-10-6-19-13-28-20-8-6-18-13-23-22-17 7-34 15-52 21-17 5-23-21-7-27 23-8 46-12 70-18 21-6 40-15 62-18 1 0 1 1 2 1 2-1 4-1 6 1 5 5 8 10 10 16 2 7-6 10-10 6z m-228 69c-1 0-1 0-2 0-1-1-2-1-2-1-6-2-11-5-15-10-11-12-11-31-2-44 22-31 69-11 69 25-1 27-27 37-48 30z m349 4c-5 0-10-1-15-3-7-1-14-4-19-7-13-11-13-29-5-42 19-31 69-17 69 19 0 17-14 31-30 33z m-239-221c-9 13-23 23-33 35-12 13-24 26-38 38 1 8 2 13 3 23 0 4-3 8-6 10-17 10-34 23-53 27-4 1-9 0-12-3-14-17-9-41-8-62 1-32 2-63 3-95 1-13-2-35 10-45 3-2 7-3 11-4-7-66-2-135-2-200 0-5 3-8 6-9 1-1 2-3 4-4 22-5 48 0 70 0 6 0 10 7 7 13-10 17-30 30-50 30 2 30 0 62 1 92 0 26 3 52 4 77 1 1 3 1 4 1 4 1 8 5 9 10 5 18 0 40-1 59 0 8-1 15-2 23 26-36 62-75 77-40 4 9 1 17-4 24z m292-84c-1 9 0 16-9 22-4 2-10 3-16 3 2 61 3 122 2 182 0 6-6 12-12 10-34-14-73-19-62-58-22-17-40-39-58-59-11-13-37-35-19-53 19-19 42 14 53 26 9 9 17 18 26 27-2-26-4-53-4-79-6 0-12 0-18-1-4 0-7-3-8-6-2-2-4-4-4-8 0-19-1-38-1-57 1-10 0-17 9-22 8-4 20-4 31-4 0-11 2-22 2-30l1-55c-16-2-34-11-41-24 0-1 0-2 0-3-4-2-3-8 1-9 12-4 25-4 38-5 9 0 19-1 28 1 5-2 12 0 12 7 1 22 0 45 0 68 0 10 0 20 0 30 1 4 1 8 1 11 0 3 0 6 0 8 14 0 28-1 42-1 6 0 11 5 11 11-2 22-2 45-5 68z"/>
<glyph glyph-name="cultural" unicode="&#112;" d="M359 486c-154 0-153-31-153-31l0-84c29 2 48 7 61 10 19 6 27 12 28 13 3 4 7 5 11 5 2 0 4 0 5 0 7-3 10-9 10-15l0-123c12 6 25 9 39 9 4 0 8 0 13-1 5-1 9-2 14-3 9-3 18-8 26-14 14-11 26-29 28-49 1-3-2-5-5-4-16 4-28 5-39 5l-19 1-20 1c-10-1-23-1-36-1 0 0-1-1-1-1 0-33-7-65-21-93 18-9 38-13 59-13 85 0 153 80 153 178l0 179c0 0 1 31-153 31z m102-166c-19-14-45-13-62 4-17 17-18 43-4 61 2 3 6 3 8 1l58-58c2-2 2-6 0-8z m-155 64c0 0-28-31-153-31-125 0-153 31-153 31l0-179c0-99 69-179 153-179 85 0 153 80 153 179z m-258-161c-3 0-6 2-5 6 3 23 22 41 46 41 24 0 44-18 47-41 0-4-3-6-6-6z m187-61c-2-20-15-37-29-49-16-12-34-18-54-18-3 0-7 0-13 1-5 1-9 2-14 4-9 3-18 7-25 13-15 12-27 29-29 49-1 4 2 6 5 5 16-4 28-5 40-6l19-1 19 0c11 0 24 0 36 1 12 1 24 1 40 6 3 1 6-1 5-5z m23 61l-82 0c-3 0-6 2-6 6 3 23 23 41 47 41 24 0 43-18 46-41 1-4-2-6-5-6z"/>
<glyph glyph-name="sightseeing" unicode="&#113;" d="M28 177c-2 5-3 12-3 19 0 29 23 53 53 53 29 0 53-24 53-53 0-8-1-15-4-21l270 15c0 2 0 4 0 6 0 29 24 53 53 53 29 0 53-24 53-52l6 0c11 40-9 53-9 53 5 45-23 54-23 54-8 19-32 46-32 46 27 18-20 7-20 7-63 9-206 2-222-6-17-8-66-54-66-54-140-10-129-60-129-60-15-3-6-26 0-48 2-6 10-10 20-12z m50 64c-25 0-45-21-45-45 0-8 2-15 5-21 7-15 22-24 40-24 17 0 32 9 40 24 3 6 5 13 5 21 0 24-20 45-45 45z m372 0c-25 0-45-21-45-45 0-2 0-4 0-5 3-23 22-40 45-40 25 0 45 20 45 45 0 0 0 0 0 0 0 25-20 45-45 45z"/>
<glyph glyph-name="optional" unicode="&#114;" d="M311 160c0 2 0 4-2 6-10 12-18 22-24 30 4 8 7 14 9 21l41 6c2 0 3 1 5 3 1 1 1 3 1 5l0 49c0 2 0 4-1 6-2 1-3 2-5 2l-41 6c-1 7-4 14-9 22 3 4 7 10 12 16 6 7 10 12 12 15 1 2 1 3 1 5 0 5-12 19-38 42-2 2-4 3-6 3-2 0-3-1-5-2l-31-24c-8 4-14 6-20 8l-6 41c-1 2-2 3-3 5-2 1-4 2-5 2l-50 0c-4 0-7-2-8-7-2-8-4-22-6-41-8-2-15-5-21-8l-30 24c-2 1-4 2-6 2-3 0-10-6-21-16-11-11-18-19-22-24-1-1-2-3-2-5 0-2 1-4 2-6 10-11 18-22 24-30-4-8-7-14-9-20l-41-7c-1 0-3-1-4-3-1-1-2-3-2-5l0-49c0-2 1-4 2-5 1-2 3-3 4-3l41-6c2-7 5-14 9-22-3-4-7-10-12-17-6-6-9-11-11-14-1-1-2-3-2-5 0-5 13-19 38-42 2-2 4-3 6-3 2 0 4 1 5 2l32 24c7-4 14-6 20-8l6-41c0-2 1-3 3-5 1-1 3-2 5-2l50 0c4 0 6 2 8 7 2 8 4 22 6 41 7 2 14 5 20 8l31-24c2-1 4-2 5-2 4 0 11 6 21 16 11 11 18 19 22 24 2 1 2 3 2 5z m-92 48c-13-14-29-20-48-20-19 0-35 6-49 20-13 13-20 29-20 48 0 19 7 35 20 48 14 14 30 20 49 20 19 0 35-6 48-20 13-13 20-29 20-48 0-19-7-35-20-48z m253-62c-2 6-5 10-8 14 9 20 14 33 14 37 0 1 0 1-1 2-21 12-32 19-33 19l-2-1c-7-7-15-17-24-30-4 1-6 1-8 1-2 0-5 0-8-1-3 4-7 10-14 18-7 8-11 13-12 13-1 0-3-2-8-5-5-2-11-6-16-9-6-3-9-5-9-5-1-1-2-1-2-2 0-4 5-17 14-37-3-4-6-8-8-14-26-2-40-5-40-8l0-37c0-3 14-6 40-8 2-5 5-10 8-14-9-20-14-33-14-37 0-1 1-1 2-2 21-13 32-19 33-19 1 0 5 4 12 13 7 8 11 14 14 18 3-1 6-1 8-1 2 0 4 0 8 1 2-4 7-10 14-18 6-9 10-13 12-13 0 0 11 6 33 19 1 1 1 1 1 2 0 4-5 17-14 37 4 4 6 9 8 14 27 2 40 5 40 8l0 37c0 3-13 6-40 8z m-38-51c-7-6-15-10-24-10-10 0-18 4-24 10-7 7-10 15-10 24 0 10 3 18 10 24 6 7 14 11 24 11 9 0 17-4 24-11 6-6 10-14 10-24 0-9-3-17-10-24z m38 325c-2 5-5 9-8 13 9 21 14 33 14 37 0 1 0 2-1 2-21 13-32 19-33 19l-2-1c-7-7-15-17-24-30-4 1-6 1-8 1-2 0-5 0-8-1-3 4-7 10-14 18-7 9-11 13-12 13-1 0-3-2-8-4-5-3-11-6-16-10-6-3-9-5-9-5-1 0-2-1-2-2 0-4 5-16 14-37-3-4-6-8-8-13-26-3-40-6-40-9l0-37c0-3 14-6 40-8 2-5 5-10 8-14-9-20-14-33-14-37 0-1 1-1 2-2 21-12 32-19 33-19 1 0 5 4 12 13 7 8 11 14 14 18 3 0 6-1 8-1 2 0 4 1 8 1 2-4 7-10 14-18 6-9 10-13 12-13 0 0 11 7 33 19 1 1 1 1 1 2 0 4-5 17-14 37 4 4 6 9 8 14 27 2 40 5 40 8l0 37c0 3-13 6-40 9z m-38-52c-7-6-15-10-24-10-10 0-18 4-24 10-7 7-10 15-10 25 0 9 3 17 10 24 6 6 14 10 24 10 9 0 17-4 24-10 6-7 10-15 10-24 0-10-3-18-10-25z"/>
<glyph glyph-name="shopping" unicode="&#115;" d="M162 345c26-2 47-20 54-44 0-2 2-3 3-3l47 0c3 0 5-2 5-5l21-233c0-3 2-4 5-4l181 0c3 0 5 2 5 5l-34 382c0 3-3 5-5 5l-69 0c-2 0-3 1-3 2-3 35-32 62-67 62-35 0-64-27-67-62 0-1-1-2-3-2l-63 0c-2 0-5-2-5-5l-8-94c0-2 1-4 3-4z m143 155c29 0 53-21 55-49 1-2-1-3-2-3l-106 0c-1 0-2 1-2 3 3 28 26 49 55 49z m-269-500l242 0c4 0 7 3 7 7l-25 274c0 3-3 6-7 6l-46 0c-2 0-3 1-3 3-3 25-24 44-49 44-26 0-47-19-49-44 0-2-2-3-4-3l-42 0c-3 0-6-3-6-6l-25-274c0-4 3-7 7-7z m82 291c2 18 18 31 37 31 18 0 34-13 37-31 0-2-1-4-3-4l-68 0c-2 0-4 2-3 4z"/>
<glyph glyph-name="f-stay" unicode="&#116;" d="M360 328l0-17-25 0 0 37 23 0 0 21-220 0 0-21 23 0 0-209-23 0 0-21 220 0 0 21-23 0 0 108 25 0 0-16 21 0 0 97z m-67-76l0 12 22 0 0-12z m22-10l0-11-22 0 0 11z m-22 32l0 11 22 0 0-11z m0 21l0 11 22 0 0-11z m0 22l0 11 22 0 0-11z m-37-65l0 12 22 0 0-12z m22-10l0-11-22 0 0 11z m-22 32l0 11 22 0 0-11z m0 21l0 11 22 0 0-11z m0 22l0 11 22 0 0-11z m-37-65l0 12 22 0 0-12z m21-10l0-11-21 0 0 11z m-21 32l0 11 22 0 0-11z m0 21l0 11 22 0 0-11z m0 22l0 11 22 0 0-11z m-38-65l0 12 22 0 0-12z m22-10l0-11-22 0 0 11z m-22 32l0 11 22 0 0-11z m0 21l0 11 22 0 0-11z m0 22l0 11 22 0 0-11z m41-178l0 41c0 15 11 27 26 27 15 0 26-12 26-27l0-41z m113 130l0 21 25 0 0-21z m-67 163l-33 2c-1 0-1 0-2 0l-18-10c-1 0-1-1-1-2 0 0 0-1 0-1l10-12c0 0 0 0 0 0z m66 12c0 0 0 0 0 0-1 3-4 6-11 6-7 0-15-3-15-4-19-7-107-53-107-53l-21 11c0 0-1 0-2 0l-15-8c0 0-1-1-1-1 0-1 0-2 1-2l36-32c1 0 2 0 3 0l35 18 5-37c1-1 1-2 2-2 0 0 0 0 1 0 0 0 0 0 1 0 3 2 6 3 8 5 2 1 5 2 9 4 0 1 0 1 0 1l26 57 26 13c12 6 23 16 19 24z"/>
<glyph glyph-name="weekend" unicode="&#117;" d="M500 290l-36 49c-7 10-22 18-34 18l-111 0 0 10 102 0c11 0 20 9 20 20l0 72c0 11-9 21-20 21l-125 0c-12 0-21-10-21-21l0-8-72 0c-9 0-16-7-16-16l0-52c0-9 7-16 16-16l103 0 0-10-129 0c-12 0-27-8-33-18l-51-78c-5-9-17-18-26-22l-46-18c-12-4-21-17-21-30l0-88c0-13 11-23 24-23l24 0c8-28 33-48 63-48 30 0 55 20 63 48l141 0c8-28 33-48 63-48 30 0 55 20 63 48l47 0c13 0 24 10 24 23l0 149c0 12-5 28-12 38z m-234 35l40 0 0-86-48-2z m-155-259c-18 0-33 14-33 32 0 18 15 33 33 33 18 0 33-15 33-33 0-18-15-32-33-32z m22 165c-9 0-12 6-8 13l42 68c4 7 15 13 24 13l46 0-9-90z m186 8l0 86 29 0 8-84z m59-173c-18 0-33 14-33 32 0 18 15 33 33 33 18 0 32-15 32-33 0-18-14-32-32-32z m74 179l-67-3-8 83 46 0c8 0 18-6 21-14l19-51c3-8-2-15-11-15z"/>
<glyph glyph-name="transfers" unicode="&#118;" d="M480 317c0 0 0 0-1 1l-18 17c15 3 31 16 31 29 0 15-21 20-38 20-19 0-21-13-21-22l-46 45c-10 9-28 17-41 17l-180 0c-14 0-31-8-41-17l-46-45c0 9-2 22-21 22-18 0-38-5-38-20 0-13 16-26 31-29l-18-17c-1-1-1-1-1-1-19-17-32-47-32-69l0-66c0-16 6-30 16-41l0-26c0-14 13-27 28-27l34 0c15 0 28 13 28 27l0 7 300 0 0-7c0-14 13-27 28-27l34 0c15 0 28 13 28 27l0 26c10 11 16 25 16 41l0 66c0 22-13 52-32 69z m-338 70c7 6 18 10 24 10l180 0c6 0 17-4 24-10l60-59-348 0z m-121-129c0 16 12 29 28 29 16 0 67-30 67-46 0-16-51-13-67-13-16 0-28 13-28 30z m85-107l-11 0-32 0c-9 2-15 6-20 9-2 2-4 4-5 5-1 2-2 4-3 6-4 11 4 21 4 21l55 0 36-41z m228 0l-156 0c-17 0-30 13-30 29l216 0c0-16-13-29-30-29z m7 49l-170 0c-18 0-32 22-32 49l234 0c0-27-14-49-32-49z m136-29c-1-2-2-4-3-6-1-1-3-3-5-5-5-3-11-7-20-9l-32 0-35 0 36 41 55 0c0 0 8-10 4-21z m-14 57c-16 0-67-3-67 13 0 16 51 46 67 46 16 0 28-13 28-29 0-17-12-30-28-30z"/>
<glyph glyph-name="naturel" unicode="&#119;" d="M393 491c-47 5-125-24-138-99-14 75-91 104-138 99-57-6-133-32-114-149 19-118 253-319 253-319 0 0 231 201 250 319 20 117-56 143-113 149z m-159-309c-14 0-28 2-43 8-7 2-14 6-21 10-7 4-14 9-20 14-6 5-12 11-17 18-5 6-10 13-14 20-3 8-6 15-8 22-2 8-4 15-4 22-1 8-1 14 0 20 0 6 2 12 4 16 1 4 3 7 3 10 2 2 2 3 2 3 0 0 2 0 4-1 3-1 6-2 10-3 4-2 8-3 14-5 5-2 10-4 15-6 5-2 11-4 16-6 5-3 11-5 16-8 10-6 20-12 30-21 5-3 9-8 13-13 4-3 7-7 10-11-5-17-9-35-10-53-4 2-7 4-10 6-9 4-16 10-23 15-4 3-7 6-10 8-3 3-6 6-9 8-2 3-4 5-6 7-2 2-3 5-4 6-3 4-4 6-4 6 0 0 1-3 3-6 1-2 2-4 4-6 2-3 4-5 6-8 2-3 5-6 8-9 3-3 6-6 9-9 7-6 14-12 22-17 5-3 9-6 13-9 0-9 1-19 2-28 0 0-1 0-1 0z m168 147c-1-3-2-6-3-10-2-4-3-8-5-14-2-5-4-10-6-15-2-5-4-11-6-16-3-5-5-11-8-16-6-11-13-20-21-30-4-5-8-9-13-13-4-4-9-8-14-12-5-4-11-8-16-11-6-3-11-6-17-9-5-2-11-5-16-6-5-2-10-4-14-5-3-1-6-2-8-3 1 3 2 7 4 10 5 13 13 30 23 46 4 9 10 16 15 23 3 4 5 7 8 10 3 3 5 6 8 9 3 2 5 4 7 6 2 2 4 3 6 4 4 3 5 4 5 4 0 0-2-1-5-3-2-1-4-2-7-4-2-2-4-4-7-6-3-2-6-5-9-8-3-3-6-6-9-9-6-7-12-14-17-22-12-16-21-33-28-46-1-2-2-5-3-7-1 2-1 4-2 6-1 4-2 9-3 15-1 6-1 12-1 18 0 14 2 28 8 43 2 7 5 14 10 21 3 7 9 14 14 20 5 6 11 12 17 17 7 5 14 10 21 14 8 3 15 6 22 8 8 2 15 4 22 5 7 0 14 0 20-1 6 0 11-2 16-4 4-1 7-3 10-3 2-2 3-2 3-2 0 0 0-2-1-4z"/>
<glyph glyph-name="religious" unicode="&#120;" d="M173 361c2 0 4 1 4 3 0 1 0 2 0 3-1 2 1 1 5-2 3-2 6-6 6-8 0-2 2-4 4-4l28 0c0 0 2 0 4 0 3 0 14 0 25 0 5 0 9 0 13 0 12 0 23 0 25 0 2 0 4 0 4 0l26 0c0 0 2 0 3 0 2 0 4 2 4 4 0 2 3 6 6 8 4 3 6 4 5 2 0-1 0-2 0-3 0-2 2-3 4-3 2 0 3 1 4 2 1 1 2 2 2 3 0 2-1 7-1 10 0 4-1 7-1 7l-1-1c0 0-5-1-12-1-8 0-20 1-35 10-10 6-17 13-21 20-7 9-7 18-5 18 2 0 3 0 4 0 13 0 15 4 16 4 0 0 0 1 0 1 0 0 0 1 0 1l-1 0c-4 2-8 4-11 7-6 4-11 9-11 9 0 0-1 10-3 22-1 9-3 21-4 30-2 12-4 12-6 0l-4-30c-2-12-3-22-3-22 0 0-4-5-11-9-3-3-7-5-11-7 0 0-1 0-1 0 0 0 0-1 0-1l0-1c1 0 3-4 16-4 1 0 2 0 4 0 2 0 2-9-5-18-4-7-11-14-21-20-14-9-27-10-35-10-7 0-12 1-12 1 0 0 0 1-1 1 0 0-1-3-1-7 0-3-1-8-1-10 0-1 1-2 2-3 1-1 2-2 4-2z m-72-100c2 0 3 2 5 3 1 1 1 3 1 4 0 1-1 3-2 4-1 1-2 3-2 3 0 1 4-3 10-7 7-4 13-6 13-7 0-2 1-3 3-3l236 0c12 0 21 1 21 3 0 1 6 3 12 7 7 4 11 8 11 7 0 0-1-2-2-3-1-1-2-3-2-4 0-1 0-3 1-4 2-1 3-3 5-3 3 0 8 2 8 6 0 1 0 3-1 4-1 1-2 5-2 9 0 4-1 7-1 7-1 1-4 0-6-2-2-1-13-5-25-2-6 1-13 3-21 7-22 13-31 38-32 38 0 0 0 0 0 0 0 1-1 1-2 1-1 0-2 1-2 2 0 1-1 2-2 2-1 0-11 0-22 0-38 0-115 0-115 0 0 0 0 0-1 0-1 0-2-1-2-2 0-1-1-2-2-2-1 0-2 0-2-1l0 0c-1 0-10-25-32-38-8-4-15-6-21-7-12-3-23 1-25 2-3 2-5 3-6 2 0 0-1-3-1-7 0-4-1-8-2-9-1-1-1-3-1-4 0-4 5-6 8-6z m317-87c-1 1-2 5-2 9 0 4-1 7-1 7-1 1-4 0-6-2-2-1-13-5-25-3-6 2-13 4-21 8-22 13-31 38-32 38 0 0 0 0 0 0 0 1-1 1-2 1-1 0-2 1-2 2 0 1-1 2-2 2-1 0-11 0-22 0-38 0-115 0-115 0 0 0 0 0-1 0-1 0-2-1-2-2 0-1-1-2-2-2-1 0-2 0-2-1l0 0c-1 0-10-25-32-38-8-4-15-6-21-7-12-3-23 1-25 2-3 2-5 3-6 2 0 0-1-3-1-7 0-4-1-8-2-9-1-1-1-3-1-4 0-4 5-6 8-6 2 0 3 2 5 3 1 1 1 3 1 4 0 1-1 3-2 4-1 1-2 3-2 3 0 1 4-3 10-7 7-4 13-6 13-7 0-2 1-3 3-3l3 0c0 0 2 0 5 0 3 0 5-1 5-3 0-2 4-3 10-3 6 0 10-1 10-3 0-1-1-1-1-2-1-9-2-18-3-29-2-10-3-21-4-32-1-11-3-22-3-33 0-1 0-2 0-2 0-2-2-3-5-3-2 0-4-2-4-4 0-2-4-4-9-4-4 0-8-10-8-21l0-1c0-12 9-21 20-21l201 0c0 0 9 0 20 0 11 0 20 9 20 21l0 1c0 11-4 21-8 21-5 0-8 2-8 4 0 2-2 4-5 4-2 0-4 1-4 3 0 0 0 1 0 2 0 11-3 22-4 33-1 11-2 22-3 32-1 11-2 20-4 29 0 1 0 1 0 2 0 2 4 3 10 3 5 0 10 1 10 3 0 2 3 3 8 3 4 0 8 1 8 3 0 1 6 3 12 7 7 4 11 8 11 7 0 0-1-2-2-3-1-1-2-3-2-4 0-1 0-3 1-4 2-1 3-3 5-3 3 0 8 2 8 6 0 1 0 3-1 4z m-168-24c-1-9-2-18-3-29-2-10-3-21-4-32-1-11-3-22-3-33 0-1 0-2 0-2 0-2-2-3-5-3-2 0-4-2-4-4 0-3-9-4-20-4-10 0-19 1-19 4 0 2-2 4-4 4-3 0-5 1-5 3 0 0 0 1 0 2 0 11-3 22-3 33-2 11-2 22-4 32-1 11-2 20-3 29-1 1-1 1-1 2 0 2 4 3 10 3 5 0 10 1 10 3 0 2 9 3 19 3 11 0 20-1 20-3 0-2 5-3 10-3 6 0 10-1 10-3 0-1 0-1-1-2z m89 0c-1-9-2-18-3-29-2-10-3-21-4-32-1-11-3-22-4-33 0-1 0-2 0-2 0-2-1-3-4-3-2 0-4-2-4-4 0-3-9-4-20-4-10 0-19 1-19 4 0 2-2 4-4 4-3 0-5 1-5 3 0 0 0 1 0 2 0 11-2 22-3 33-1 11-2 22-4 32-1 11-2 20-3 29-1 1-1 1-1 2 0 2 4 3 10 3 5 0 10 1 10 3 0 2 9 3 19 3 11 0 20-1 20-3 0-2 4-3 10-3 5 0 10-1 9-3 0-1 0-1 0-2z"/>
<glyph glyph-name="insurance" unicode="&#121;" d="M512 238c-12 9-31 15-52 15-33 0-61-14-67-32l-3 0c-6 18-33 32-66 32-21 0-40-6-53-15l0-154c0-38-31-69-69-69-38 0-70 31-70 69 0 9 7 16 16 16 8 0 15-7 15-16 0-21 17-38 39-38 21 0 39 17 39 38l0 154c-13 9-32 15-53 15-33 0-60-14-66-32l-3 0c-6 18-34 32-67 32-21 0-40-6-52-15 10 110 113 196 241 203l0 11c0 9 7 16 15 16 8 0 15-7 15-16l0-11c128-7 231-94 241-203z m-475 230c0 0-22-44-22-56 0-13 10-23 22-23 12 0 22 10 22 23 0 12-22 56-22 56z m63 29c0 0-17-33-17-42 0-9 8-17 17-17 9 0 17 8 17 17 0 9-17 42-17 42z"/>
<glyph glyph-name="t-custom" unicode="&#122;" d="M16 419l86 0c8-28 33-48 63-48 30 0 55 20 62 48l269 0c9 0 16 7 16 16 0 9-7 17-16 17l-269 0c-7 27-32 48-62 48-30 0-55-21-63-48l-86 0c-9 0-16-8-16-17 0-9 7-16 16-16z m149 48c17 0 31-14 31-32 0-17-14-31-31-31-18 0-32 14-32 31 0 18 14 32 32 32z m331-195l-110 0c-7 28-32 49-62 49-30 0-55-21-63-49l-245 0c-9 0-16-7-16-16 0-9 7-16 16-16l245 0c8-28 33-49 63-49 30 0 55 21 62 49l110 0c9 0 16 7 16 16 0 9-7 16-16 16z m-172-48c-18 0-32 15-32 32 0 17 14 32 32 32 17 0 32-15 32-32 0-17-15-32-32-32z m172-131l-269 0c-7 28-32 48-62 48-30 0-55-20-63-48l-86 0c-9 0-16-7-16-16 0-9 7-17 16-17l86 0c8-27 33-48 63-48 30 0 55 21 62 48l269 0c9 0 16 8 16 17 0 9-7 16-16 16z m-331-48c-18 0-32 14-32 32 0 17 14 31 32 31 17 0 31-14 31-31 0-18-14-32-31-32z"/>
<glyph glyph-name="t-fd" unicode="&#65;" d="M314 367l-100 5c-1 0-2 0-3-1l-55-29c-2-1-3-3-3-4-1-2 0-4 1-6l28-34c1 0 1 1 1 1z m196 35c0 0 0 0 0 0-4 8-13 17-33 17-21 0-44-10-45-10-55-22-316-160-316-160l-63 34c-2 1-4 1-6 0l-44-23c-1-1-3-3-3-5 0-2 1-4 2-5l108-93c2-2 4-2 7-1l105 55 15-112c1-2 2-4 4-5 1 0 2-1 3-1 1 0 2 1 3 1 11 6 18 10 25 14 6 3 14 7 25 13 1 1 2 2 3 3l74 166 77 41c36 18 70 46 59 71z"/>
<glyph glyph-name="child" unicode="&#66;" d="M137 314c38 0 68 30 68 68 0 24 9 45-10 57-11 8-58 11-73 11-16 0-38-13-50-23-15-13-3-24-3-45 0-38 30-68 68-68z m-48 75c13 2 21-2 21-2l21 10c0 0-10-15-1-10 22 7 46 4 58 2 0-3 1-6 1-9 0-28-23-51-51-51-27 0-50 23-50 51 0 3 1 6 1 9z m382 3c-1 4-1 7-2 11-2 24-24 73-86 71-53-1-64-41-67-65-2-6-3-12-3-19-69-12-62-82-20-83-4 36 14 58 20 65 7-37 39-66 79-66 37 0 68 26 77 61 6-12 17-35 15-60 66 0 33 76-13 85z m-79-64c-31 0-57 25-57 56 11 4 19 24 19 24 0 0 7-2 7-25 12-4 32 35 32 35l0-31c13-3 54 2 54 2l2-2c0 0 0-1 0-2 0-31-26-57-57-57z m16-24l-61 0-82-99-80 97-90 0-95-104 20-20 68 58 0-112 13 0 0-86-8 0 0-10 39 0 0 96 15 0 0-96 39 0 0 10-9 0 0 86 17 0 0 110 54-56 22 6 12-4 62 71 3-28-57-98 66 0 0-85-9 0 0-10 40 0 0 10 0 0 0 85 14 0 0-95 40 0 0 10-9 0 0 85 51 0-50 98 3 34 48-64 31 8-76 103z"/>
<glyph glyph-name="luxury" unicode="&#67;" d="M366 358l-111-342-113 342z m-185 42l74 75 73-75z m-84-42l91-274-188 274z m314 0l100 0-190-277z m83 42l-106 0-94 97 88 0z m-376 97l98 0-96-97-106 0z"/>
<glyph glyph-name="adventure" unicode="&#69;" d="M101 421c32 25 20 79-20 89-36 9-68-21-63-57 6-39 52-57 83-32z m33-30c-6 12-22 18-35 13l-48-21c-9-4-15-12-15-20l0 0c0 0-21-59 0-98 14-27 45-40 63-46l7-15c0-1 1-1 1-2l1-1 0 0c4-8 13-14 22-15-6-32-4-80 42-119 1-1 2-1 4-1 1 0 3 1 4 2 3 3 2 7 0 9-43 36-43 80-38 110 1 0 2 0 3 0l123 40 141-88c3-3 7-4 11-5l32-90c5-13 16-31 25-39 10-9 17-5 17 9l1 430c0 15-13 28-28 28l-287 0c-4 5-9 8-16 8l-16 0c-6 0-12-3-15-8-4-5-4-12-2-18l32-88-16-2z m167 12c13-3 26-17 28-30 2-14 14-28 27-32l64-20c13-4 27-16 31-28 4-11 2-31-3-44l-21-47-137 87c-8 5-18 6-27 3l-55-18c22 22 61 71 64 136z m-109-72c5 1 10 4 13 9 3 5 4 11 2 17l-28 76 80-19c-1-70-49-121-67-138l-26 53z"/>
<glyph glyph-name="romantic" unicode="&#70;" d="M163 200c15-23 80-77 93-77 14 0 79 54 93 77 8 11 13 23 12 40-1 29-25 52-54 52-28 0-46-31-51-31-3 0-21 31-51 31-29 0-52-23-54-52-1-17 5-29 12-40z m350 75l0 59c0 21-11 40-26 52-12 9-26 14-41 14l-96 0c-1 0-1 1-1 1-7 33-33 57-62 57l-61 0c-29 0-55-24-62-56-1-1-1-2-2-2l-96 0c-36 0-66-29-66-66l0-214c0-37 30-67 66-67l40 0 0 0 340 0c37 0 67 30 67 67l0 59 0 0z m-284 155l54 0c15 0 29-11 37-28 1 0 1-2-1-2l-125 0c-2 0-2 2-1 3 9 17 22 27 36 27z m188-52c8 0 11-5 12-7 9-11 17-21 23-28 7-9 18-21 31-36 3-2 7-8 7-12l0-138c0-3-1-4-2-5-16-18-28-32-36-41-7-8-15-19-25-31-1-2-3-4-7-4l-327 0c-3 0-6 2-7 3-10 13-19 24-25 32-8 9-20 23-36 40-1 1-3 2-3 8l0 136c0 4 3 8 5 9 15 17 26 30 34 39 6 8 14 17 23 29 2 2 5 6 13 6z"/>
<glyph glyph-name="visa" unicode="&#71;" d="M503 421l-490 0c-7 0-13-6-13-13l0-308c0-8 6-14 13-14l490 0c7 0 13 6 13 14l0 308c0 7-6 13-13 13z m-463-101l55 0c8 0 14-3 16-11l12-57c-12 30-41 55-83 65z m67-131l-32 108c23-14 42-38 49-54l4-13 35 89 37 0-56-130z m121-1l-36 0 23 131 35 0z m62-2c-16 1-31 4-40 7l5 30 5-2c11-5 19-7 33-7 10 0 21 4 22 12 0 6-5 10-19 17-13 6-31 16-31 35 0 25 25 43 60 43 14 0 25-3 32-5l-5-29-3 2c-7 2-15 5-27 5-14 0-20-6-20-11 0-6 7-10 20-17 20-9 30-20 30-35-1-27-25-45-62-45z m154 2c0 0-3 15-4 20-6 0-42 0-46 0-1-4-7-20-7-20l-38 0 53 120c4 8 10 11 19 11l27 0 29-131z m-21 96c-2-5-5-13-5-13 0 0-11-29-14-36l30 0c-2 6-8 37-8 37z"/>
<glyph glyph-name="fort" unicode="&#72;" d="M493 3c-34 52-28 113-3 177-12 4-24 7-35 11l0 123 25-1c-45 29-69 63-81 101-12-44-37-78-77-100l23 0 0-61c-14 12-25 26-34 40l0 119 25 0c-45 28-69 62-81 100-13-44-37-78-77-99l22-1 0-116c-10-13-21-25-33-37l0 55 25 0c-45 29-70 63-81 100-13-43-38-77-77-99l22 0 0-122c-12-5-15-6-29-9 19-60 17-132-8-184z m-84 296l30 0 0-30-30 0z m0-46l30 0 0-29-30 0z m15-104l0-127-43-15 0 136z m-61 150l31 0 0-30-31 0z m0-46l31 0 0-29-31 0z m-99 138l29 0 0-30-29 0z m0-46l29 0 0-29-29 0z m-9-202l38 0 0-64-38 0z m0-73l38 0 0-64-38 0z m-38 321l31 0 0-30-31 0z m0-46l31 0 0-29-31 0z m-9-202l38 0 0-64-38 0z m0-73l38 0 0-64-38 0z m-90 229l29 0 0-30-29 0z m0-46l29 0 0-29-29 0z m30-110l0-132-54-4 0 136z m-76 156l30 0 0-30-30 0c0 0 0 30 0 30z m0-46l30 0 0-29-30 0c0 0 0 29 0 29z"/>
<glyph glyph-name="meals" unicode="&#73;" d="M255 415c-88 0-159-72-159-159 0-87 71-159 159-159 87 0 159 72 159 159 0 87-71 159-159 159z m0-304c-80 0-145 65-145 145 0 80 65 145 145 145 80 0 145-65 145-145 0-80-65-145-145-145z m135 145c0-74-61-135-135-135-74 0-135 61-135 135 0 74 61 135 135 135 74 0 135-61 135-135z m-307 142l0-79 0 0c-1-25-28-34-28-34l0-50 0 0 0-116c0 0-11-14-25 0l0 166 0 0c-17 7-29 9-30 34l0 0 0 79 13 0 6-76 14 0 2 77 12 0 2-77 17 0 4 76z m425-134l-31 0 0-155-35 0 0 294 35 0c0 0 49-61 31-139z"/>
<glyph glyph-name="hill" unicode="&#74;" d="M0 37l506 0 0 127c-343 27-506-127-506-127z m382 214l0 81c15-2 27-13 27 24 0 41-32 125-32 125 0 0-33-84-33-125 0-38 13-26 29-24l0-82c-21-2-41-5-61-9l0 100 2-1c2-2 4-2 7-2 3 0 6 1 8 4 3 4 2 11-2 14l-24 18c0 0 0 1 0 1l0 17c0 6-5 10-10 10-6 0-11-4-11-10l0-3-23 18c-4 2-9 2-12 0l-68-51c-4-3-5-10-2-14 4-5 10-6 14-2l3 1 0-58c-94 48-194 34-194 34l0-56c0 0 135 29 260-27-15 16-32 29-49 39l0 81 42 32 42-32 0-116c-108-24-201-69-245-99 100 31 286 95 456 54l0 54c-42 7-83 7-124 4z"/>
<glyph glyph-name="wine" unicode="&#75;" d="M75 231c-6-32 14-63 46-70 32-7 64 14 71 46l10 90c-32 17-20-55-76-43-38 8-49-16-51-23z m414-108c-2 8-11 12-18 9l-40-13-25 76c20 10 37 26 48 47 12 26 15 54 5 83l-66 152-175-58 12-48-150 32-50-159c-6-28-1-57 15-81 13-19 31-34 53-41l-17-79-41 9c-8 2-16-3-17-11-2-8 3-15 11-17l55-12c0 0 0 0 0 0 0 0 0 0 0 0l56-12c1 0 2 0 3 0 6 0 12 4 14 11 1 8-4 16-11 17l-42 9 17 78c3 0 6 0 8 0 50 0 94 35 104 85l12 88 8-32c14-43 55-73 101-73 6 0 13 1 19 3l25-76-40-14c-7-2-11-10-9-18 2-6 8-10 14-10 1 0 3 1 4 1l108 36c8 2 12 11 9 18z m-279 82c-9-41-51-69-92-60l0 0c-20 5-38 17-49 34-11 18-15 38-11 57l41 134 129-28z m76 59l-34 136 125 41 55-127c7-19 5-40-4-59-9-18-25-32-45-39-8-2-16-4-24-4-34 0-63 22-73 52z m130 42c-3 6-16 30-53 17-54-18-50 56-80 35l20-89c10-31 44-48 75-37 31 10 48 43 38 74z m-249 173c9 1 16 9 16 18-1 9-8 15-17 15-9-1-16-8-16-17 1-9 8-16 17-16z m64-28c9 0 15 8 15 17-1 9-8 16-17 15-9 0-16-8-16-17 1-9 8-16 18-15z m-73-14c1-9 8-16 17-15 10 0 16 8 16 17-1 9-8 16-17 15-9 0-16-8-16-17z"/>
<glyph glyph-name="independent" unicode="&#76;" d="M125 383l0 0c0 0 0 0 0 0 0 0 0 0 0 0l0 0c23 4 38 26 35 49-4 23-26 39-49 35l0 0c0 0 0 0 0 0 0 0 0 0 0 0l0 0c-23-4-38-26-34-49 3-23 25-38 48-35z m157-252l-83 83c-5 7-21 103-21 107-2 11 1 17 1 17 0 0 42 107 46 118 4 12 4 20-4 26-9 6-22 6-26-4l-44-107c0 0-11 4-24 2 0 0 0 0 0 0 0 0-1 0-1 0-12-2-22-10-22-10l-76 87c-9 9-19 4-25-4-6-8-2-17 4-25 7-8 81-98 81-98 0 0 5-5 7-15 0-1 0-1 16-99l11-164c0-11 9-19 20-19 0 0 1 0 1 0 11 0 20 10 19 21 0 0-9 144-9 149 0 3 3 5 6 1 4-4 94-95 94-95 8-8 21-8 29 0 8 8 8 21 0 29z m93 212l0 0c0 0 0 0 0 0 0 0 0 0 0 0l0 0c0 0 1 0 1 0 0 0 0 0 0 0l0 0c0 0 0 0 0 0 0 0 0 0 0 0l0 0c17-6 36 4 42 21 6 17-3 36-20 42l0 0c0 0 0 0 0 0 0 0 0 0 0 0-1 0-1 0-1 0 0 0 0 0 0 0l0 0c0 0 0 0 0 0 0 0 0 0 0 0l0 0c-18 6-36-3-42-21-6-17 3-36 20-42z m137-13c-2 7-9 10-22 8l-100-11c0 0-5 5-17 10-12 4-19 2-19 2l-72 70c-9 10-16 12-22 7-8-6-9-15-5-21 7-7 71-74 74-77 2-4 1-6-2-13-1-4-18-51-24-69l-86-58c-7-5-9-15-4-22 5-8 15-10 22-5 0 0 90 61 93 62 2 2 5 1 4-2-1-3-39-122-39-122-3-8 2-18 11-20 1-1 3-1 5-1 6 0 13 4 15 11l42 134c1 1 1 1 1 2 24 70 24 70 23 68 3 8 3 9 7 11 4 2 96 14 106 17 6 1 11 9 9 19z"/>
<glyph glyph-name="flights" unicode="&#77;" d="M481 511c-15 4-46-10-68-31l-112-106c-5-4-13-6-19-3l-205 79c-5 2-14 1-19-3l-40-31c-5-4-5-9 1-12l188-112c6-3 5-8 0-11-20-11-60-48-107-114-4-5-10-9-16-9l-47 6c-7 1-15-2-19-7l-15-18c-4-5-3-11 2-13l43-21c5-3 7-9 5-15-2-6-4-14-4-23 0-6 6-12 12-13 9 0 21 1 33 8 5 3 10 3 13-3l25-53c3-6 9-7 13-3l11 8c5 4 9 12 8 18l-4 55c-1 6 3 13 9 17 23 14 86 56 114 97 4 5 9 5 12 0l110-175c3-5 9-6 13-2l23 24c4 4 6 12 4 18l-72 216c-2 6 0 15 4 19l99 108c21 23 36 54 35 70-1 16-15 32-30 35z"/>
</font>
</defs>
</svg>
